<svg width="17" height="16" viewBox="0 0 17 16" fill="none" xmlns="http://www.w3.org/2000/svg">
<path d="M8.31651 0.423147C8.38614 0.262571 8.61386 0.26257 8.68349 0.423146L10.6255 4.90154C10.6545 4.96837 10.7175 5.01416 10.79 5.02107L15.6493 5.48411C15.8235 5.50072 15.8939 5.71729 15.7627 5.83313L12.1036 9.06398C12.049 9.11219 12.0249 9.18628 12.0408 9.25738L13.102 14.0219C13.1401 14.1928 12.9558 14.3266 12.8051 14.2377L8.60168 11.756C8.53895 11.719 8.46105 11.719 8.39832 11.756L4.19489 14.2377C4.04417 14.3266 3.85994 14.1928 3.89799 14.0219L4.95922 9.25738C4.97506 9.18628 4.95099 9.11219 4.89638 9.06398L1.23728 5.83313C1.10608 5.71729 1.17645 5.50072 1.35069 5.48411L6.21 5.02107C6.28252 5.01416 6.34554 4.96837 6.37452 4.90154L8.31651 0.423147Z" fill="#E98D4B"/>
</svg>
